<svg id="visual" viewBox="0 0 900 600" width="900" height="600" xmlns="http://www.w3.org/2000/svg" xmlns:xlink="http://www.w3.org/1999/xlink" version="1.1"><rect x="0" y="0" width="900" height="600" fill="#001220"></rect><defs><linearGradient id="grad1_0" x1="33.3%" y1="0%" x2="100%" y2="100%"><stop offset="20%" stop-color="#001220" stop-opacity="1"></stop><stop offset="80%" stop-color="#001220" stop-opacity="1"></stop></linearGradient></defs><defs><linearGradient id="grad2_0" x1="0%" y1="0%" x2="66.7%" y2="100%"><stop offset="20%" stop-color="#001220" stop-opacity="1"></stop><stop offset="80%" stop-color="#001220" stop-opacity="1"></stop></linearGradient></defs><g transform="translate(900, 0)"><path d="M0 270.4C-32.1 259.5 -64.2 248.5 -98.3 237.4C-132.5 226.3 -168.6 215.1 -191.2 191.2C-213.8 167.3 -222.8 130.8 -233.7 96.8C-244.7 62.8 -257.5 31.4 -270.4 0L0 0Z" fill="#0066FF"></path></g><g transform="translate(0, 600)"><path d="M0 -270.4C35.3 -261.2 70.7 -252 96.8 -233.7C123 -215.5 139.9 -188.2 166.9 -166.9C193.9 -145.6 230.9 -130.3 249.8 -103.5C268.8 -76.7 269.6 -38.3 270.4 0L0 0Z" fill="#0066FF"></path></g></svg>